<?xml version="1.0" standalone="no"?>
<!DOCTYPE svg PUBLIC "-//W3C//DTD SVG 20010904//EN"
 "http://www.w3.org/TR/2001/REC-SVG-20010904/DTD/svg10.dtd">
<svg version="1.0" xmlns="http://www.w3.org/2000/svg"
 width="670.000000pt" height="670.000000pt" viewBox="0 0 670.000000 670.000000"
 preserveAspectRatio="xMidYMid meet">

<g transform="translate(0.000000,670.000000) scale(0.100000,-0.100000)"
fill="#326ce5" stroke="none">
<path d="M3271 6328 c-87 -59 -93 -100 -61 -413 l23 -223 -26 -32 c-20 -23
-27 -43 -27 -73 0 -23 -4 -47 -8 -53 -4 -6 -39 -14 -79 -18 -208 -20 -495
-106 -707 -212 -251 -125 -449 -276 -664 -506 l-63 -67 -46 25 c-37 19 -56 23
-92 19 -51 -7 -19 -30 -326 234 -109 94 -140 111 -204 112 -96 3 -161 -62
-161 -160 0 -94 30 -123 260 -249 250 -136 260 -142 260 -165 0 -37 29 -85 64
-107 l37 -22 -29 -52 c-177 -315 -277 -771 -251 -1144 9 -132 18 -196 51 -342
14 -63 17 -95 10 -98 -32 -10 -78 -52 -96 -87 l-21 -39 -145 -39 c-220 -58
-340 -95 -374 -115 -48 -28 -76 -77 -76 -134 0 -57 15 -91 60 -133 29 -28 37
-30 103 -30 72 0 73 1 296 113 207 104 226 112 252 102 36 -15 91 -15 119 0
12 6 23 10 24 8 2 -2 26 -48 56 -103 172 -327 463 -639 776 -833 257 -159 561
-270 842 -307 64 -9 118 -17 120 -20 2 -2 6 -23 7 -45 2 -23 11 -51 19 -63 49
-67 47 -46 20 -277 -14 -118 -24 -242 -22 -275 6 -102 62 -155 161 -155 83 0
147 70 147 160 0 54 -38 432 -46 467 -5 17 0 30 16 45 28 26 50 78 50 117 0
28 3 29 53 35 125 16 199 29 304 57 578 152 1078 539 1359 1049 91 166 77 151
124 135 22 -8 40 -10 40 -5 0 4 9 6 21 3 11 -3 32 0 46 8 24 13 39 7 257 -104
213 -109 235 -118 286 -117 115 0 183 88 158 205 -7 34 -20 53 -51 80 -44 38
-46 39 -357 125 l-186 51 -20 42 c-14 29 -32 48 -59 62 -22 11 -42 21 -44 22
-2 1 4 33 13 70 42 167 57 294 57 503 0 92 -2 183 -5 202 -3 18 -13 78 -21
133 -33 207 -94 397 -197 613 l-49 104 40 37 c22 20 42 50 46 66 3 17 9 36 13
44 7 13 99 67 312 185 139 77 169 100 192 153 17 38 18 50 8 98 -23 109 -133
160 -233 108 -17 -9 -86 -62 -152 -117 -288 -244 -262 -225 -301 -214 -39 10
-85 -1 -116 -29 -18 -16 -25 -10 -141 109 -194 199 -371 330 -606 449 -214
109 -500 195 -713 214 l-78 7 0 34 c0 42 -16 83 -42 112 -21 22 -21 25 -9 165
7 78 16 172 22 209 29 207 -10 296 -135 306 -41 3 -57 -1 -85 -20z m318 -1244
c232 -34 413 -97 640 -223 l83 -46 -6 -95 c-13 -218 -121 -480 -293 -710 -43
-58 -150 -179 -239 -270 -174 -178 -235 -260 -254 -341 -35 -145 27 -261 299
-559 197 -215 297 -352 377 -515 65 -135 93 -232 101 -352 l6 -91 -54 -35
c-77 -49 -242 -130 -329 -161 -148 -53 -433 -106 -573 -106 -105 0 -352 39
-481 76 -120 34 -326 127 -430 194 l-49 31 6 87 c8 117 38 228 92 341 86 179
178 303 416 562 136 149 209 243 247 319 23 47 27 67 27 140 0 128 -26 170
-249 399 -213 220 -308 344 -398 523 -91 180 -132 314 -143 473 l-7 90 84 47
c219 122 413 190 638 223 123 18 363 18 489 -1z m-1296 -414 c14 -126 79 -328
151 -469 9 -17 13 -31 9 -31 -10 0 -134 85 -288 196 -61 43 -122 87 -135 96
l-25 18 129 125 c71 69 134 125 141 125 8 0 15 -23 18 -60z m2174 22 c55 -45
213 -202 213 -213 0 -5 -46 -40 -102 -79 -57 -39 -154 -107 -217 -151 -62 -44
-116 -77 -119 -74 -3 3 1 18 10 33 58 98 131 331 144 460 4 34 10 62 14 62 5
0 30 -17 57 -38z m-2617 -567 c87 -66 277 -215 470 -367 107 -84 210 -164 228
-177 31 -22 33 -27 27 -60 -4 -20 -10 -73 -14 -119 l-6 -83 -120 -54 c-66 -29
-221 -97 -345 -150 -124 -54 -271 -118 -328 -143 -67 -30 -106 -42 -112 -36
-16 16 -39 139 -52 282 -19 212 13 478 83 682 31 90 108 260 118 260 3 0 26
-16 51 -35z m3093 -62 c148 -319 192 -702 121 -1053 -9 -41 -18 -77 -20 -79
-2 -3 -37 9 -77 26 -141 60 -653 282 -742 321 l-90 39 -6 94 c-3 52 -9 105
-13 119 -6 22 1 31 46 66 246 190 447 346 573 446 83 65 153 118 156 118 3 0
26 -44 52 -97z m-2234 -1204 l23 -31 -35 -37 c-49 -52 -176 -223 -229 -311
-89 -145 -168 -370 -168 -477 0 -24 -5 -43 -11 -43 -33 0 -231 197 -333 331
-66 87 -176 267 -176 286 1 5 65 29 143 55 224 74 700 239 717 249 27 15 46
10 69 -22z m1387 5 c38 -14 159 -56 269 -94 381 -130 540 -185 545 -188 8 -6
-43 -94 -125 -217 -47 -71 -120 -162 -179 -223 -102 -106 -193 -188 -201 -180
-2 2 -9 37 -16 78 -15 101 -63 247 -111 344 -54 107 -159 263 -247 364 l-72
83 21 29 c12 17 27 30 34 30 8 0 45 -12 82 -26z"/>
<path d="M2771 4475 c-61 -14 -191 -68 -191 -80 0 -22 74 -159 137 -255 60
-89 118 -157 258 -300 100 -102 196 -207 214 -233 87 -128 113 -244 141 -631
16 -224 -16 -398 -93 -504 -52 -70 -133 -129 -297 -217 -163 -87 -251 -146
-300 -201 -39 -45 -69 -109 -70 -147 0 -32 28 -52 130 -93 36 -15 79 -32 95
-39 49 -21 164 -53 260 -72 139 -27 474 -25 613 5 118 26 295 87 388 134 57
29 64 36 64 63 0 100 -111 215 -301 314 -230 119 -349 211 -398 306 -29 56
-58 176 -66 271 -8 85 14 360 42 524 33 203 77 275 323 525 187 191 293 332
358 477 l30 67 -51 -34 c-29 -19 -86 -47 -127 -61 -66 -24 -91 -27 -200 -28
-153 -1 -234 19 -425 106 -191 88 -263 109 -375 114 -60 2 -118 -2 -159 -11z"/>
</g>
</svg>
